<svg xmlns="http://www.w3.org/2000/svg" width="27.088" height="27.088" viewBox="0 0 27.088 27.088"><defs><style>.a{opacity:0.15;}</style></defs><g class="a" transform="translate(0.001 0)"><path d="M19.755,0H7.331A7.341,7.341,0,0,0,0,7.332V19.756a7.341,7.341,0,0,0,7.332,7.332H19.755a7.341,7.341,0,0,0,7.332-7.332V7.332A7.341,7.341,0,0,0,19.754,0ZM13.543,20.951a7.407,7.407,0,1,1,7.407-7.407A7.415,7.415,0,0,1,13.543,20.951ZM21.127,7.884A2.189,2.189,0,1,1,23.316,5.7,2.191,2.191,0,0,1,21.127,7.884Zm0,0"/><path d="M151.839,146.02a5.819,5.819,0,1,0,5.819,5.819A5.825,5.825,0,0,0,151.839,146.02Zm0,0" transform="translate(-138.296 -138.295)"/><path d="M388.593,96.3a.6.6,0,1,0,.6.6A.6.6,0,0,0,388.593,96.3Zm0,0" transform="translate(-367.466 -91.206)"/></g></svg>